<svg xmlns="http://www.w3.org/2000/svg" width="315.823" height="90.574" viewBox="0 0 315.823 90.574">
  <path id="Path_609" data-name="Path 609" d="M46.775,0C64.126,0,75.356-9.377,75.356-23.584c0-10.725-9.153-18.979-20.1-19.26v-.449c9.377-1.179,16.453-8.2,16.453-17.52,0-12.634-9.714-20.215-26.279-20.215H5.615V0ZM29.424-64.687H38.97c6.008,0,9.6,3.032,9.6,8.03,0,4.885-3.818,8.086-9.939,8.086H29.424Zm0,48.347V-34.927H39.756c7.131,0,11.4,3.369,11.4,9.153,0,6.121-4.211,9.434-11.567,9.434ZM146.3-61.992H123.281v34.646c0,6.008-3.369,10-8.535,10-5.391,0-8.928-3.481-8.928-10.051v-34.59H82.8v39.756c0,14.768,9.771,23.472,23.079,23.472,9.265,0,15.049-5,17.52-13.42h.449V0H146.3ZM156.1,0h23.022V-61.992H156.1Zm11.4-67.888a10.846,10.846,0,0,0,10.95-10.725A10.846,10.846,0,0,0,167.5-89.338a10.846,10.846,0,0,0-10.95,10.725A10.846,10.846,0,0,0,167.5-67.888ZM189.2,0h23.022V-81.028H189.2Zm55.674.9c9.321,0,16.509-5.11,18.586-11.624h.449V0h23.022V-81.028H263.912v30.21h-.449c-2.415-6.963-9.153-12.073-18.193-12.073-15.442,0-24.539,11.792-24.539,31.726C220.73-10.95,229.6.9,244.876.9Zm9.265-46.045c6.177,0,9.883,5.334,9.883,14.207,0,8.928-3.65,14.094-9.883,14.094s-9.827-5.278-9.827-14.15C244.314-39.756,247.964-45.146,254.141-45.146ZM309.759.786a11.671,11.671,0,0,0,11.68-11.68,11.671,11.671,0,0,0-11.68-11.68,11.671,11.671,0,0,0-11.68,11.68A11.671,11.671,0,0,0,309.759.786Z" transform="translate(-5.615 89.338)"/>
</svg>
