<svg width="805" height="197" viewBox="0 0 805 197" fill="none" xmlns="http://www.w3.org/2000/svg">
<g clip-path="url(#clip0_11234_23147)">
<path d="M27.1636 178.5C42.1517 178.5 54.316 166.553 54.316 151.833V125.167H27.1636C12.1754 125.167 0.0111084 137.113 0.0111084 151.833C0.0111084 166.553 12.1754 178.5 27.1636 178.5Z" fill="#0ACF83"/>
<path d="M0.0111084 98.5002C0.0111084 83.7802 12.1754 71.8335 27.1636 71.8335H54.316V125.167H27.1636C12.1754 125.167 0.0111084 113.22 0.0111084 98.5002Z" fill="#A259FF"/>
<path d="M0.0111084 45.1667C0.0111084 30.4467 12.1754 18.5 27.1636 18.5H54.316V71.8333H27.1636C12.1754 71.8333 0.0111084 59.8867 0.0111084 45.1667Z" fill="#F24E1E"/>
<path d="M54.3158 18.5H81.4683C96.4564 18.5 108.621 30.4467 108.621 45.1667C108.621 59.8867 96.4564 71.8333 81.4683 71.8333H54.3158V18.5Z" fill="#FF7262"/>
<path d="M108.621 98.5002C108.621 113.22 96.4564 125.167 81.4683 125.167C66.4801 125.167 54.3158 113.22 54.3158 98.5002C54.3158 83.7802 66.4801 71.8335 81.4683 71.8335C96.4564 71.8335 108.621 83.7802 108.621 98.5002Z" fill="#1ABCFE"/>
</g>
<line opacity="0.4" x1="182.632" y1="18.5" x2="182.632" y2="178.5" stroke="#726C6C" stroke-opacity="0.4" stroke-width="4"/>
<path d="M300.098 128.978C326.312 128.978 347.562 107.725 347.562 81.5072C347.562 55.2898 326.312 34.0364 300.098 34.0364C273.885 34.0364 252.635 55.2898 252.635 81.5072C252.635 107.725 273.885 128.978 300.098 128.978Z" fill="white"/>
<path d="M300.107 34.022C273.887 34.022 252.632 55.281 252.632 81.5043C252.632 101.895 265.485 119.279 283.528 126.006C285.199 120.574 289.397 116.255 294.751 114.412C287.767 112.004 282.743 105.392 282.743 97.5897C282.743 91.668 285.643 86.4371 290.091 83.2011C287.595 77.2938 283.832 71.9052 279.12 67.5141C278.209 68.0845 277.134 68.4198 275.982 68.4198C272.704 68.4198 270.047 65.7628 270.047 62.4838C270.047 59.2048 272.704 56.5478 275.982 56.5478C279.261 56.5478 281.917 59.2048 281.917 62.4838C281.917 63.3265 281.74 64.1291 281.422 64.8542C286.425 69.4947 290.443 75.1756 293.149 81.4126C295.404 80.3778 297.906 79.7874 300.548 79.7874C303.193 79.7874 305.692 80.3807 307.948 81.4126C310.587 75.3275 314.482 69.7756 319.319 65.1982C318.901 64.3842 318.66 63.4641 318.66 62.4867C318.66 59.2077 321.317 56.5507 324.595 56.5507C327.874 56.5507 330.53 59.2077 330.53 62.4867C330.53 65.7657 327.874 68.4227 324.595 68.4227C323.575 68.4227 322.615 68.1647 321.775 67.7119C317.158 72.0686 313.464 77.3855 311.005 83.2068C315.45 86.4428 318.351 91.6737 318.351 97.5954C318.351 105.397 313.324 112.013 306.34 114.417C311.593 116.226 315.737 120.416 317.468 125.705C335.101 118.771 347.588 101.605 347.588 81.51C347.582 55.281 326.326 34.022 300.107 34.022Z" fill="#CA0515"/>
<path d="M385.245 120L411.951 43.5371H426.046V58.374H421.171L402.042 120H385.245ZM399.605 101.454L403.526 89.4784H439.188L443.109 101.454H399.605ZM440.618 120L421.489 58.374V43.5371H430.762L457.416 120H440.618ZM463.933 120V63.196H479.406V72.522H479.724C481.208 69.272 483.398 66.7109 486.295 64.8386C489.191 62.9664 492.777 62.0302 497.051 62.0302C503.304 62.0302 508.126 63.9201 511.517 67.7C514.944 71.4446 516.657 76.6551 516.657 83.3317V120H501.184V86.5111C501.184 82.8018 500.301 79.9404 498.535 77.9269C496.804 75.878 494.208 74.8535 490.746 74.8535C488.45 74.8535 486.454 75.3834 484.758 76.4432C483.062 77.4676 481.738 78.916 480.784 80.7883C479.865 82.6605 479.406 84.8507 479.406 87.3589V120H463.933ZM549.033 121.166C542.745 121.166 538.082 119.841 535.044 117.192C532.006 114.542 530.487 110.179 530.487 104.103V74.8535H522.592V63.196H530.487V49.3129H546.119V63.196H556.505V74.8535H546.119V102.408C546.119 105.057 546.702 106.912 547.868 107.972C549.069 108.996 550.835 109.508 553.167 109.508C553.873 109.508 554.491 109.491 555.021 109.455C555.551 109.385 556.046 109.314 556.505 109.243V120.583C555.657 120.724 554.597 120.848 553.326 120.954C552.089 121.095 550.658 121.166 549.033 121.166ZM590.153 121.166C584.359 121.166 579.378 119.982 575.21 117.616C571.041 115.213 567.827 111.804 565.566 107.389C563.34 102.973 562.228 97.7447 562.228 91.704V91.651C562.228 85.6102 563.34 80.382 565.566 75.9663C567.827 71.5152 570.988 68.0886 575.051 65.6864C579.149 63.249 583.971 62.0302 589.517 62.0302C595.063 62.0302 599.85 63.2136 603.877 65.5805C607.939 67.912 611.066 71.2149 613.256 75.4894C615.481 79.7638 616.594 84.7624 616.594 90.4852V95.2542H569.805V85.5043H609.282L601.916 94.6183V88.6836C601.916 85.363 601.404 82.5899 600.38 80.3644C599.355 78.1035 597.924 76.4079 596.087 75.2774C594.286 74.147 592.184 73.5818 589.782 73.5818C587.38 73.5818 585.242 74.1647 583.37 75.3304C581.533 76.4962 580.085 78.2095 579.025 80.4703C578.001 82.6959 577.488 85.4336 577.488 88.6836V94.6713C577.488 97.8153 578.001 100.5 579.025 102.726C580.085 104.951 581.586 106.664 583.529 107.866C585.472 109.031 587.786 109.614 590.471 109.614C592.59 109.614 594.427 109.279 595.982 108.607C597.536 107.936 598.808 107.088 599.797 106.064C600.786 105.039 601.457 103.997 601.81 102.938L601.916 102.62H616.117L615.958 103.203C615.534 105.287 614.704 107.389 613.468 109.508C612.231 111.628 610.553 113.571 608.434 115.337C606.35 117.103 603.789 118.516 600.751 119.576C597.748 120.636 594.215 121.166 590.153 121.166ZM624.595 120V63.196H640.068V72.522H640.386C641.87 69.272 644.06 66.7109 646.957 64.8386C649.853 62.9664 653.439 62.0302 657.713 62.0302C663.966 62.0302 668.788 63.9201 672.179 67.7C675.606 71.4446 677.319 76.6551 677.319 83.3317V120H661.847V86.5111C661.847 82.8018 660.963 79.9404 659.197 77.9269C657.466 75.878 654.87 74.8535 651.408 74.8535C649.112 74.8535 647.116 75.3834 645.42 76.4432C643.724 77.4676 642.4 78.916 641.446 80.7883C640.527 82.6605 640.068 84.8507 640.068 87.3589V120H624.595ZM687.122 120V63.196H702.595V72.522H702.913C704.397 69.272 706.587 66.7109 709.484 64.8386C712.38 62.9664 715.966 62.0302 720.24 62.0302C726.493 62.0302 731.315 63.9201 734.706 67.7C738.133 71.4446 739.846 76.6551 739.846 83.3317V120H724.373V86.5111C724.373 82.8018 723.49 79.9404 721.724 77.9269C719.993 75.878 717.397 74.8535 713.935 74.8535C711.638 74.8535 709.643 75.3834 707.947 76.4432C706.251 77.4676 704.927 78.916 703.973 80.7883C703.054 82.6605 702.595 84.8507 702.595 87.3589V120H687.122ZM766.553 120.901C762.773 120.901 759.452 120.177 756.591 118.728C753.729 117.245 751.486 115.213 749.861 112.635C748.271 110.02 747.477 107.053 747.477 103.732V103.626C747.477 98.4689 749.402 94.4241 753.252 91.492C757.103 88.5246 762.543 86.8113 769.573 86.3521L791.722 84.9744V94.6183L771.904 95.8901C768.937 96.0667 766.676 96.7732 765.122 98.0096C763.568 99.2107 762.79 100.818 762.79 102.832V102.938C762.79 105.022 763.585 106.664 765.175 107.866C766.765 109.031 768.902 109.614 771.587 109.614C773.883 109.614 775.932 109.173 777.733 108.289C779.57 107.371 781.001 106.135 782.025 104.58C783.085 102.991 783.615 101.207 783.615 99.2284V82.007C783.615 79.4989 782.82 77.5206 781.23 76.0723C779.641 74.5886 777.327 73.8467 774.289 73.8467C771.392 73.8467 769.096 74.4473 767.4 75.6483C765.705 76.8494 764.663 78.3684 764.274 80.2054L764.168 80.6823H750.02L750.073 80.0464C750.356 76.5492 751.504 73.4405 753.517 70.7204C755.566 68.0003 758.392 65.8807 761.996 64.3617C765.634 62.8074 769.944 62.0302 774.925 62.0302C779.835 62.0302 784.092 62.825 787.695 64.4147C791.298 65.9691 794.089 68.1769 796.067 71.0383C798.081 73.8997 799.088 77.238 799.088 81.0532V120H783.615V111.522H783.297C782.237 113.465 780.86 115.143 779.164 116.556C777.504 117.933 775.614 119.011 773.494 119.788C771.375 120.53 769.061 120.901 766.553 120.901Z" fill="black" fill-opacity="0.87"/>
<path opacity="0.8" d="M264.365 174.186C263.468 174.186 262.661 174.342 261.942 174.653C261.231 174.957 260.623 175.401 260.12 175.986C259.623 176.564 259.242 177.264 258.975 178.087C258.708 178.909 258.575 179.835 258.575 180.865C258.575 182.228 258.786 183.414 259.208 184.421C259.638 185.422 260.275 186.196 261.12 186.744C261.972 187.292 263.035 187.566 264.309 187.566C265.035 187.566 265.717 187.507 266.354 187.389C266.999 187.263 267.625 187.107 268.232 186.922V188.567C267.639 188.789 267.017 188.952 266.365 189.056C265.713 189.167 264.939 189.222 264.042 189.222C262.39 189.222 261.009 188.881 259.897 188.2C258.793 187.511 257.964 186.54 257.408 185.288C256.86 184.036 256.586 182.558 256.586 180.854C256.586 179.624 256.756 178.502 257.097 177.487C257.445 176.464 257.949 175.583 258.608 174.842C259.275 174.101 260.09 173.53 261.053 173.13C262.024 172.723 263.135 172.519 264.387 172.519C265.209 172.519 266.002 172.601 266.765 172.764C267.528 172.927 268.217 173.16 268.832 173.464L268.077 175.064C267.558 174.827 266.987 174.623 266.365 174.453C265.75 174.275 265.083 174.186 264.365 174.186ZM282.121 182.888C282.121 183.888 281.992 184.781 281.732 185.566C281.473 186.351 281.099 187.014 280.61 187.555C280.121 188.096 279.528 188.511 278.832 188.8C278.143 189.081 277.361 189.222 276.487 189.222C275.672 189.222 274.924 189.081 274.242 188.8C273.568 188.511 272.983 188.096 272.486 187.555C271.997 187.014 271.616 186.351 271.342 185.566C271.075 184.781 270.942 183.888 270.942 182.888C270.942 181.554 271.168 180.421 271.619 179.487C272.071 178.546 272.716 177.831 273.553 177.342C274.398 176.846 275.402 176.598 276.565 176.598C277.676 176.598 278.647 176.846 279.476 177.342C280.314 177.839 280.962 178.557 281.421 179.498C281.888 180.432 282.121 181.562 282.121 182.888ZM272.853 182.888C272.853 183.866 272.983 184.714 273.242 185.433C273.501 186.151 273.901 186.707 274.442 187.1C274.983 187.492 275.679 187.689 276.531 187.689C277.376 187.689 278.069 187.492 278.61 187.1C279.158 186.707 279.562 186.151 279.821 185.433C280.08 184.714 280.21 183.866 280.21 182.888C280.21 181.917 280.08 181.08 279.821 180.376C279.562 179.665 279.162 179.117 278.621 178.731C278.08 178.346 277.38 178.154 276.52 178.154C275.253 178.154 274.324 178.572 273.731 179.409C273.146 180.247 272.853 181.406 272.853 182.888ZM287.309 189H285.453V171.708H287.309V189ZM301.854 182.888C301.854 183.888 301.724 184.781 301.465 185.566C301.206 186.351 300.832 187.014 300.343 187.555C299.854 188.096 299.261 188.511 298.564 188.8C297.875 189.081 297.094 189.222 296.22 189.222C295.405 189.222 294.656 189.081 293.975 188.8C293.3 188.511 292.715 188.096 292.219 187.555C291.73 187.014 291.348 186.351 291.074 185.566C290.807 184.781 290.674 183.888 290.674 182.888C290.674 181.554 290.9 180.421 291.352 179.487C291.804 178.546 292.448 177.831 293.286 177.342C294.13 176.846 295.134 176.598 296.297 176.598C297.409 176.598 298.379 176.846 299.209 177.342C300.046 177.839 300.694 178.557 301.154 179.498C301.621 180.432 301.854 181.562 301.854 182.888ZM292.586 182.888C292.586 183.866 292.715 184.714 292.975 185.433C293.234 186.151 293.634 186.707 294.175 187.1C294.716 187.492 295.412 187.689 296.264 187.689C297.109 187.689 297.801 187.492 298.342 187.1C298.89 186.707 299.294 186.151 299.553 185.433C299.813 184.714 299.942 183.866 299.942 182.888C299.942 181.917 299.813 181.08 299.553 180.376C299.294 179.665 298.894 179.117 298.353 178.731C297.812 178.346 297.112 178.154 296.253 178.154C294.986 178.154 294.056 178.572 293.463 179.409C292.878 180.247 292.586 181.406 292.586 182.888ZM310.72 176.598C310.964 176.598 311.22 176.613 311.487 176.642C311.754 176.664 311.991 176.698 312.198 176.742L311.965 178.454C311.765 178.402 311.542 178.361 311.298 178.331C311.053 178.302 310.824 178.287 310.609 178.287C310.12 178.287 309.657 178.387 309.22 178.587C308.79 178.78 308.412 179.061 308.086 179.432C307.76 179.795 307.505 180.235 307.319 180.754C307.134 181.265 307.042 181.836 307.042 182.465V189H305.186V176.82H306.719L306.919 179.065H306.997C307.249 178.613 307.553 178.202 307.908 177.831C308.264 177.453 308.675 177.153 309.142 176.931C309.616 176.709 310.142 176.598 310.72 176.598ZM325.218 172.753C327.315 172.753 328.845 173.164 329.808 173.986C330.779 174.801 331.264 175.972 331.264 177.498C331.264 178.187 331.149 178.843 330.919 179.465C330.697 180.08 330.334 180.624 329.83 181.099C329.326 181.565 328.663 181.936 327.841 182.21C327.026 182.477 326.026 182.61 324.84 182.61H322.862V189H320.973V172.753H325.218ZM325.04 174.364H322.862V180.987H324.629C325.666 180.987 326.53 180.876 327.219 180.654C327.915 180.432 328.437 180.072 328.786 179.576C329.134 179.072 329.308 178.405 329.308 177.576C329.308 176.494 328.963 175.69 328.274 175.164C327.585 174.631 326.507 174.364 325.04 174.364ZM339.085 176.62C340.537 176.62 341.615 176.946 342.319 177.598C343.023 178.25 343.375 179.291 343.375 180.721V189H342.03L341.675 187.2H341.586C341.245 187.644 340.889 188.018 340.519 188.322C340.148 188.618 339.719 188.844 339.23 189C338.748 189.148 338.155 189.222 337.452 189.222C336.711 189.222 336.051 189.093 335.473 188.833C334.903 188.574 334.451 188.181 334.118 187.655C333.792 187.129 333.629 186.462 333.629 185.655C333.629 184.44 334.11 183.506 335.073 182.854C336.037 182.202 337.503 181.847 339.474 181.788L341.575 181.699V180.954C341.575 179.902 341.349 179.165 340.897 178.743C340.445 178.32 339.808 178.109 338.985 178.109C338.348 178.109 337.741 178.202 337.163 178.387C336.585 178.572 336.037 178.791 335.518 179.043L334.951 177.642C335.499 177.361 336.129 177.12 336.84 176.92C337.552 176.72 338.3 176.62 339.085 176.62ZM341.552 182.999L339.696 183.077C338.178 183.136 337.107 183.384 336.485 183.821C335.862 184.258 335.551 184.877 335.551 185.677C335.551 186.374 335.762 186.888 336.185 187.222C336.607 187.555 337.166 187.722 337.863 187.722C338.944 187.722 339.83 187.422 340.519 186.822C341.208 186.222 341.552 185.322 341.552 184.121V182.999ZM349.174 189H347.318V171.708H349.174V189ZM357.907 176.598C358.944 176.598 359.833 176.827 360.574 177.287C361.315 177.746 361.881 178.391 362.274 179.22C362.667 180.043 362.863 181.006 362.863 182.11V183.254H354.45C354.473 184.684 354.828 185.773 355.517 186.522C356.206 187.27 357.177 187.644 358.429 187.644C359.199 187.644 359.881 187.574 360.474 187.433C361.066 187.292 361.681 187.085 362.318 186.811V188.433C361.703 188.707 361.092 188.907 360.485 189.033C359.885 189.159 359.173 189.222 358.351 189.222C357.18 189.222 356.158 188.985 355.284 188.511C354.417 188.029 353.743 187.326 353.261 186.4C352.78 185.473 352.539 184.34 352.539 182.999C352.539 181.688 352.757 180.554 353.195 179.598C353.639 178.635 354.261 177.894 355.062 177.376C355.869 176.857 356.817 176.598 357.907 176.598ZM357.884 178.109C356.899 178.109 356.114 178.431 355.528 179.076C354.943 179.721 354.595 180.621 354.484 181.776H360.929C360.922 181.05 360.807 180.413 360.585 179.865C360.37 179.309 360.04 178.88 359.596 178.576C359.151 178.265 358.581 178.109 357.884 178.109ZM370.073 187.711C370.377 187.711 370.688 187.685 371.007 187.633C371.325 187.581 371.585 187.518 371.785 187.444V188.878C371.57 188.974 371.27 189.056 370.884 189.122C370.507 189.189 370.136 189.222 369.773 189.222C369.129 189.222 368.543 189.111 368.017 188.889C367.491 188.659 367.069 188.274 366.75 187.733C366.439 187.192 366.284 186.444 366.284 185.488V178.265H364.55V177.365L366.295 176.642L367.028 173.997H368.14V176.82H371.707V178.265H368.14V185.433C368.14 186.196 368.314 186.766 368.662 187.144C369.017 187.522 369.488 187.711 370.073 187.711ZM378.328 187.711C378.632 187.711 378.943 187.685 379.262 187.633C379.58 187.581 379.839 187.518 380.039 187.444V188.878C379.825 188.974 379.525 189.056 379.139 189.122C378.761 189.189 378.391 189.222 378.028 189.222C377.383 189.222 376.798 189.111 376.272 188.889C375.746 188.659 375.324 188.274 375.005 187.733C374.694 187.192 374.538 186.444 374.538 185.488V178.265H372.805V177.365L374.55 176.642L375.283 173.997H376.394V176.82H379.962V178.265H376.394V185.433C376.394 186.196 376.568 186.766 376.917 187.144C377.272 187.522 377.743 187.711 378.328 187.711ZM387.339 176.598C388.376 176.598 389.265 176.827 390.006 177.287C390.747 177.746 391.313 178.391 391.706 179.22C392.099 180.043 392.295 181.006 392.295 182.11V183.254H383.882C383.905 184.684 384.26 185.773 384.949 186.522C385.638 187.27 386.609 187.644 387.861 187.644C388.631 187.644 389.313 187.574 389.906 187.433C390.498 187.292 391.113 187.085 391.751 186.811V188.433C391.136 188.707 390.524 188.907 389.917 189.033C389.317 189.159 388.606 189.222 387.783 189.222C386.613 189.222 385.59 188.985 384.716 188.511C383.849 188.029 383.175 187.326 382.693 186.4C382.212 185.473 381.971 184.34 381.971 182.999C381.971 181.688 382.19 180.554 382.627 179.598C383.071 178.635 383.693 177.894 384.494 177.376C385.301 176.857 386.25 176.598 387.339 176.598ZM387.316 178.109C386.331 178.109 385.546 178.431 384.96 179.076C384.375 179.721 384.027 180.621 383.916 181.776H390.361C390.354 181.05 390.239 180.413 390.017 179.865C389.802 179.309 389.472 178.88 389.028 178.576C388.583 178.265 388.013 178.109 387.316 178.109Z" fill="#726C6C"/>
<circle cx="440.196" cy="180" r="5" fill="#D9D9D9"/>
<path opacity="0.8" d="M493.409 189H491.508V174.42H486.396V172.753H498.499V174.42H493.409V189ZM498.896 176.82H500.875L503.564 183.888C503.72 184.303 503.864 184.703 503.997 185.088C504.131 185.466 504.249 185.829 504.353 186.177C504.457 186.525 504.538 186.863 504.597 187.189H504.675C504.779 186.818 504.927 186.333 505.12 185.733C505.312 185.125 505.52 184.507 505.742 183.877L508.287 176.82H510.276L504.975 190.789C504.694 191.538 504.364 192.189 503.986 192.745C503.616 193.301 503.164 193.727 502.63 194.023C502.097 194.327 501.452 194.479 500.697 194.479C500.349 194.479 500.041 194.457 499.774 194.412C499.508 194.375 499.278 194.331 499.085 194.279V192.801C499.248 192.838 499.445 192.871 499.674 192.901C499.911 192.93 500.156 192.945 500.408 192.945C500.867 192.945 501.264 192.856 501.597 192.678C501.938 192.508 502.23 192.256 502.475 191.923C502.719 191.589 502.93 191.193 503.108 190.734L503.775 189.022L498.896 176.82ZM518.087 176.598C519.605 176.598 520.817 177.12 521.721 178.165C522.625 179.209 523.076 180.78 523.076 182.877C523.076 184.262 522.869 185.425 522.454 186.366C522.039 187.307 521.454 188.018 520.698 188.5C519.95 188.981 519.065 189.222 518.042 189.222C517.398 189.222 516.831 189.137 516.342 188.967C515.853 188.796 515.434 188.567 515.086 188.278C514.738 187.989 514.449 187.674 514.219 187.333H514.086C514.108 187.622 514.134 187.97 514.164 188.378C514.201 188.785 514.219 189.141 514.219 189.445V194.445H512.363V176.82H513.886L514.13 178.62H514.219C514.456 178.25 514.745 177.913 515.086 177.609C515.427 177.298 515.842 177.053 516.331 176.876C516.827 176.69 517.412 176.598 518.087 176.598ZM517.764 178.154C516.92 178.154 516.238 178.317 515.72 178.643C515.208 178.969 514.834 179.457 514.597 180.109C514.36 180.754 514.234 181.565 514.219 182.543V182.899C514.219 183.929 514.33 184.799 514.553 185.51C514.782 186.222 515.156 186.763 515.675 187.133C516.201 187.503 516.905 187.689 517.787 187.689C518.542 187.689 519.172 187.485 519.676 187.077C520.18 186.67 520.554 186.103 520.798 185.377C521.05 184.644 521.176 183.803 521.176 182.854C521.176 181.417 520.895 180.276 520.331 179.432C519.776 178.58 518.92 178.154 517.764 178.154ZM536.943 182.888C536.943 183.888 536.814 184.781 536.554 185.566C536.295 186.351 535.921 187.014 535.432 187.555C534.943 188.096 534.35 188.511 533.654 188.8C532.965 189.081 532.183 189.222 531.309 189.222C530.494 189.222 529.746 189.081 529.064 188.8C528.39 188.511 527.805 188.096 527.308 187.555C526.819 187.014 526.438 186.351 526.164 185.566C525.897 184.781 525.764 183.888 525.764 182.888C525.764 181.554 525.99 180.421 526.442 179.487C526.893 178.546 527.538 177.831 528.375 177.342C529.22 176.846 530.224 176.598 531.387 176.598C532.498 176.598 533.469 176.846 534.299 177.342C535.136 177.839 535.784 178.557 536.243 179.498C536.71 180.432 536.943 181.562 536.943 182.888ZM527.675 182.888C527.675 183.866 527.805 184.714 528.064 185.433C528.323 186.151 528.723 186.707 529.264 187.1C529.805 187.492 530.502 187.689 531.354 187.689C532.198 187.689 532.891 187.492 533.432 187.1C533.98 186.707 534.384 186.151 534.643 185.433C534.902 184.714 535.032 183.866 535.032 182.888C535.032 181.917 534.902 181.08 534.643 180.376C534.384 179.665 533.984 179.117 533.443 178.731C532.902 178.346 532.202 178.154 531.342 178.154C530.076 178.154 529.146 178.572 528.553 179.409C527.968 180.247 527.675 181.406 527.675 182.888ZM543.676 194.468C542.076 194.468 540.842 194.168 539.975 193.568C539.108 192.975 538.675 192.141 538.675 191.067C538.675 190.304 538.916 189.652 539.397 189.111C539.886 188.57 540.56 188.211 541.42 188.033C541.101 187.885 540.827 187.663 540.597 187.366C540.375 187.07 540.264 186.729 540.264 186.344C540.264 185.899 540.386 185.51 540.631 185.177C540.883 184.836 541.264 184.51 541.775 184.199C541.138 183.94 540.62 183.503 540.22 182.888C539.827 182.265 539.631 181.543 539.631 180.721C539.631 179.846 539.812 179.102 540.175 178.487C540.538 177.865 541.064 177.39 541.753 177.064C542.442 176.738 543.276 176.575 544.254 176.575C544.469 176.575 544.683 176.587 544.898 176.609C545.121 176.624 545.332 176.65 545.532 176.687C545.732 176.716 545.906 176.753 546.054 176.798H550.233V177.987L547.988 178.265C548.21 178.554 548.395 178.902 548.543 179.309C548.692 179.717 548.766 180.169 548.766 180.665C548.766 181.88 548.354 182.847 547.532 183.566C546.71 184.277 545.58 184.633 544.143 184.633C543.802 184.633 543.454 184.603 543.098 184.544C542.735 184.744 542.457 184.966 542.264 185.21C542.079 185.455 541.987 185.736 541.987 186.055C541.987 186.292 542.057 186.481 542.198 186.622C542.346 186.763 542.557 186.866 542.831 186.933C543.105 186.992 543.435 187.022 543.82 187.022H545.965C547.291 187.022 548.306 187.3 549.01 187.855C549.721 188.411 550.077 189.222 550.077 190.289C550.077 191.638 549.529 192.671 548.432 193.39C547.336 194.108 545.75 194.468 543.676 194.468ZM543.731 193.023C544.739 193.023 545.572 192.919 546.232 192.712C546.899 192.512 547.395 192.219 547.721 191.834C548.054 191.456 548.221 191.004 548.221 190.478C548.221 189.989 548.11 189.619 547.888 189.367C547.665 189.122 547.339 188.959 546.91 188.878C546.48 188.789 545.954 188.744 545.332 188.744H543.22C542.672 188.744 542.194 188.83 541.787 189C541.379 189.17 541.064 189.422 540.842 189.756C540.627 190.089 540.52 190.504 540.52 191C540.52 191.66 540.797 192.16 541.353 192.501C541.909 192.849 542.702 193.023 543.731 193.023ZM544.209 183.288C545.091 183.288 545.754 183.066 546.198 182.621C546.643 182.177 546.865 181.528 546.865 180.676C546.865 179.765 546.639 179.083 546.187 178.631C545.735 178.172 545.069 177.942 544.187 177.942C543.342 177.942 542.69 178.179 542.231 178.654C541.779 179.12 541.553 179.806 541.553 180.71C541.553 181.539 541.783 182.177 542.242 182.621C542.702 183.066 543.357 183.288 544.209 183.288ZM558.31 176.598C558.554 176.598 558.81 176.613 559.076 176.642C559.343 176.664 559.58 176.698 559.788 176.742L559.554 178.454C559.354 178.402 559.132 178.361 558.888 178.331C558.643 178.302 558.413 178.287 558.198 178.287C557.71 178.287 557.246 178.387 556.809 178.587C556.38 178.78 556.002 179.061 555.676 179.432C555.35 179.795 555.094 180.235 554.909 180.754C554.724 181.265 554.631 181.836 554.631 182.465V189H552.775V176.82H554.309L554.509 179.065H554.587C554.839 178.613 555.142 178.202 555.498 177.831C555.854 177.453 556.265 177.153 556.732 176.931C557.206 176.709 557.732 176.598 558.31 176.598ZM566.787 176.62C568.239 176.62 569.317 176.946 570.021 177.598C570.725 178.25 571.076 179.291 571.076 180.721V189H569.732L569.376 187.2H569.287C568.946 187.644 568.591 188.018 568.22 188.322C567.85 188.618 567.42 188.844 566.931 189C566.45 189.148 565.857 189.222 565.153 189.222C564.412 189.222 563.753 189.093 563.175 188.833C562.604 188.574 562.153 188.181 561.819 187.655C561.493 187.129 561.33 186.462 561.33 185.655C561.33 184.44 561.812 183.506 562.775 182.854C563.738 182.202 565.205 181.847 567.176 181.788L569.276 181.699V180.954C569.276 179.902 569.05 179.165 568.598 178.743C568.146 178.32 567.509 178.109 566.687 178.109C566.05 178.109 565.442 178.202 564.864 178.387C564.286 178.572 563.738 178.791 563.219 179.043L562.653 177.642C563.201 177.361 563.831 177.12 564.542 176.92C565.253 176.72 566.001 176.62 566.787 176.62ZM569.254 182.999L567.398 183.077C565.879 183.136 564.809 183.384 564.186 183.821C563.564 184.258 563.253 184.877 563.253 185.677C563.253 186.374 563.464 186.888 563.886 187.222C564.309 187.555 564.868 187.722 565.564 187.722C566.646 187.722 567.531 187.422 568.22 186.822C568.909 186.222 569.254 185.322 569.254 184.121V182.999ZM580.743 176.598C582.261 176.598 583.473 177.12 584.377 178.165C585.281 179.209 585.732 180.78 585.732 182.877C585.732 184.262 585.525 185.425 585.11 186.366C584.695 187.307 584.11 188.018 583.354 188.5C582.606 188.981 581.721 189.222 580.698 189.222C580.054 189.222 579.487 189.137 578.998 188.967C578.509 188.796 578.09 188.567 577.742 188.278C577.394 187.989 577.105 187.674 576.875 187.333H576.742C576.764 187.622 576.79 187.97 576.82 188.378C576.857 188.785 576.875 189.141 576.875 189.445V194.445H575.019V176.82H576.542L576.786 178.62H576.875C577.112 178.25 577.401 177.913 577.742 177.609C578.083 177.298 578.498 177.053 578.987 176.876C579.483 176.69 580.068 176.598 580.743 176.598ZM580.42 178.154C579.576 178.154 578.894 178.317 578.376 178.643C577.864 178.969 577.49 179.457 577.253 180.109C577.016 180.754 576.89 181.565 576.875 182.543V182.899C576.875 183.929 576.986 184.799 577.209 185.51C577.438 186.222 577.812 186.763 578.331 187.133C578.857 187.503 579.561 187.689 580.443 187.689C581.198 187.689 581.828 187.485 582.332 187.077C582.836 186.67 583.21 186.103 583.454 185.377C583.706 184.644 583.832 183.803 583.832 182.854C583.832 181.417 583.551 180.276 582.988 179.432C582.432 178.58 581.576 178.154 580.42 178.154ZM590.942 171.708V176.876C590.942 177.172 590.935 177.472 590.92 177.776C590.905 178.072 590.879 178.346 590.842 178.598H590.965C591.216 178.168 591.535 177.809 591.92 177.52C592.313 177.224 592.757 177.001 593.254 176.853C593.75 176.698 594.276 176.62 594.832 176.62C595.81 176.62 596.625 176.776 597.277 177.087C597.936 177.398 598.429 177.879 598.755 178.531C599.088 179.183 599.255 180.028 599.255 181.065V189H597.432V181.187C597.432 180.172 597.199 179.413 596.732 178.909C596.273 178.405 595.565 178.154 594.61 178.154C593.706 178.154 592.983 178.328 592.443 178.676C591.909 179.017 591.524 179.52 591.287 180.187C591.057 180.854 590.942 181.669 590.942 182.632V189H589.098V171.708H590.942ZM601.275 176.82H603.253L605.943 183.888C606.098 184.303 606.243 184.703 606.376 185.088C606.51 185.466 606.628 185.829 606.732 186.177C606.836 186.525 606.917 186.863 606.976 187.189H607.054C607.158 186.818 607.306 186.333 607.499 185.733C607.691 185.125 607.899 184.507 608.121 183.877L610.666 176.82H612.655L607.354 190.789C607.073 191.538 606.743 192.189 606.365 192.745C605.995 193.301 605.543 193.727 605.009 194.023C604.476 194.327 603.831 194.479 603.076 194.479C602.727 194.479 602.42 194.457 602.153 194.412C601.887 194.375 601.657 194.331 601.464 194.279V192.801C601.627 192.838 601.824 192.871 602.053 192.901C602.29 192.93 602.535 192.945 602.787 192.945C603.246 192.945 603.642 192.856 603.976 192.678C604.317 192.508 604.609 192.256 604.854 191.923C605.098 191.589 605.309 191.193 605.487 190.734L606.154 189.022L601.275 176.82Z" fill="#726C6C"/>
<circle cx="659.196" cy="180" r="5" fill="#D9D9D9"/>
<path opacity="0.8" d="M716.587 184.677C716.587 185.64 716.346 186.462 715.865 187.144C715.391 187.818 714.724 188.333 713.865 188.689C713.005 189.044 711.994 189.222 710.831 189.222C710.216 189.222 709.634 189.193 709.086 189.133C708.538 189.074 708.034 188.989 707.575 188.878C707.115 188.767 706.711 188.63 706.363 188.467V186.655C706.919 186.885 707.597 187.1 708.397 187.3C709.197 187.492 710.034 187.589 710.908 187.589C711.723 187.589 712.412 187.481 712.976 187.266C713.539 187.044 713.965 186.729 714.254 186.322C714.55 185.907 714.698 185.41 714.698 184.833C714.698 184.277 714.576 183.814 714.331 183.443C714.087 183.066 713.679 182.725 713.109 182.421C712.546 182.11 711.775 181.78 710.797 181.432C710.108 181.187 709.501 180.921 708.975 180.632C708.449 180.335 708.008 180.002 707.652 179.632C707.297 179.261 707.026 178.831 706.841 178.342C706.663 177.853 706.574 177.294 706.574 176.664C706.574 175.798 706.793 175.057 707.23 174.442C707.675 173.819 708.286 173.345 709.064 173.019C709.849 172.686 710.749 172.519 711.764 172.519C712.631 172.519 713.431 172.601 714.165 172.764C714.905 172.927 715.583 173.145 716.198 173.419L715.609 175.042C715.024 174.797 714.402 174.594 713.742 174.431C713.09 174.268 712.416 174.186 711.72 174.186C711.023 174.186 710.434 174.29 709.953 174.497C709.479 174.697 709.116 174.983 708.864 175.353C708.612 175.723 708.486 176.164 708.486 176.676C708.486 177.246 708.604 177.72 708.841 178.098C709.086 178.476 709.471 178.813 709.997 179.109C710.531 179.398 711.234 179.702 712.109 180.021C713.064 180.369 713.876 180.739 714.542 181.132C715.209 181.517 715.717 181.991 716.065 182.554C716.413 183.11 716.587 183.818 716.587 184.677ZM721.619 171.708V176.876C721.619 177.172 721.612 177.472 721.597 177.776C721.582 178.072 721.556 178.346 721.519 178.598H721.642C721.893 178.168 722.212 177.809 722.597 177.52C722.99 177.224 723.434 177.001 723.931 176.853C724.427 176.698 724.953 176.62 725.509 176.62C726.487 176.62 727.302 176.776 727.954 177.087C728.613 177.398 729.106 177.879 729.432 178.531C729.765 179.183 729.932 180.028 729.932 181.065V189H728.109V181.187C728.109 180.172 727.876 179.413 727.409 178.909C726.95 178.405 726.242 178.154 725.287 178.154C724.383 178.154 723.66 178.328 723.12 178.676C722.586 179.017 722.201 179.52 721.964 180.187C721.734 180.854 721.619 181.669 721.619 182.632V189H719.775V171.708H721.619ZM738.431 176.62C739.883 176.62 740.961 176.946 741.665 177.598C742.369 178.25 742.721 179.291 742.721 180.721V189H741.376L741.021 187.2H740.932C740.591 187.644 740.235 188.018 739.865 188.322C739.494 188.618 739.065 188.844 738.576 189C738.094 189.148 737.502 189.222 736.798 189.222C736.057 189.222 735.397 189.093 734.82 188.833C734.249 188.574 733.797 188.181 733.464 187.655C733.138 187.129 732.975 186.462 732.975 185.655C732.975 184.44 733.456 183.506 734.419 182.854C735.383 182.202 736.85 181.847 738.82 181.788L740.921 181.699V180.954C740.921 179.902 740.695 179.165 740.243 178.743C739.791 178.32 739.154 178.109 738.331 178.109C737.694 178.109 737.087 178.202 736.509 178.387C735.931 178.572 735.383 178.791 734.864 179.043L734.297 177.642C734.845 177.361 735.475 177.12 736.186 176.92C736.898 176.72 737.646 176.62 738.431 176.62ZM740.898 182.999L739.043 183.077C737.524 183.136 736.453 183.384 735.831 183.821C735.209 184.258 734.897 184.877 734.897 185.677C734.897 186.374 735.108 186.888 735.531 187.222C735.953 187.555 736.512 187.722 737.209 187.722C738.291 187.722 739.176 187.422 739.865 186.822C740.554 186.222 740.898 185.322 740.898 184.121V182.999ZM750.998 189.222C749.457 189.222 748.235 188.696 747.331 187.644C746.434 186.592 745.986 185.029 745.986 182.954C745.986 180.858 746.445 179.276 747.364 178.209C748.283 177.135 749.505 176.598 751.031 176.598C751.676 176.598 752.239 176.683 752.721 176.853C753.202 177.024 753.617 177.253 753.965 177.542C754.314 177.824 754.606 178.146 754.843 178.509H754.977C754.947 178.28 754.917 177.965 754.888 177.565C754.858 177.164 754.843 176.838 754.843 176.587V171.708H756.688V189H755.199L754.921 187.266H754.843C754.614 187.629 754.321 187.959 753.965 188.255C753.617 188.552 753.198 188.789 752.71 188.967C752.228 189.137 751.657 189.222 750.998 189.222ZM751.287 187.689C752.591 187.689 753.513 187.318 754.054 186.577C754.595 185.836 754.865 184.736 754.865 183.277V182.943C754.865 181.395 754.606 180.206 754.088 179.376C753.576 178.546 752.643 178.131 751.287 178.131C750.153 178.131 749.305 178.568 748.742 179.443C748.179 180.31 747.898 181.495 747.898 182.999C747.898 184.495 748.175 185.651 748.731 186.466C749.294 187.281 750.146 187.689 751.287 187.689ZM771.244 182.888C771.244 183.888 771.114 184.781 770.855 185.566C770.596 186.351 770.222 187.014 769.733 187.555C769.244 188.096 768.651 188.511 767.955 188.8C767.266 189.081 766.484 189.222 765.61 189.222C764.795 189.222 764.046 189.081 763.365 188.8C762.691 188.511 762.105 188.096 761.609 187.555C761.12 187.014 760.738 186.351 760.464 185.566C760.198 184.781 760.064 183.888 760.064 182.888C760.064 181.554 760.29 180.421 760.742 179.487C761.194 178.546 761.839 177.831 762.676 177.342C763.52 176.846 764.524 176.598 765.687 176.598C766.799 176.598 767.769 176.846 768.599 177.342C769.436 177.839 770.085 178.557 770.544 179.498C771.011 180.432 771.244 181.562 771.244 182.888ZM761.976 182.888C761.976 183.866 762.105 184.714 762.365 185.433C762.624 186.151 763.024 186.707 763.565 187.1C764.106 187.492 764.802 187.689 765.654 187.689C766.499 187.689 767.191 187.492 767.732 187.1C768.281 186.707 768.684 186.151 768.944 185.433C769.203 184.714 769.333 183.866 769.333 182.888C769.333 181.917 769.203 181.08 768.944 180.376C768.684 179.665 768.284 179.117 767.743 178.731C767.203 178.346 766.502 178.154 765.643 178.154C764.376 178.154 763.446 178.572 762.854 179.409C762.268 180.247 761.976 181.406 761.976 182.888ZM784.489 188.978L782.322 181.888C782.225 181.584 782.133 181.287 782.044 180.999C781.962 180.702 781.885 180.421 781.81 180.154C781.744 179.88 781.681 179.628 781.622 179.398C781.57 179.161 781.525 178.957 781.488 178.787H781.41C781.381 178.957 781.34 179.161 781.288 179.398C781.236 179.628 781.173 179.88 781.099 180.154C781.033 180.428 780.958 180.717 780.877 181.021C780.795 181.317 780.703 181.617 780.599 181.921L778.332 188.978H776.254L772.898 176.798H774.809L776.565 183.521C776.684 183.966 776.795 184.407 776.898 184.844C777.01 185.273 777.102 185.681 777.176 186.066C777.258 186.444 777.317 186.774 777.354 187.055H777.443C777.487 186.87 777.536 186.648 777.587 186.388C777.647 186.129 777.71 185.855 777.776 185.566C777.85 185.27 777.928 184.977 778.01 184.688C778.091 184.392 778.173 184.114 778.254 183.855L780.499 176.798H782.488L784.655 183.843C784.767 184.199 784.874 184.57 784.978 184.955C785.089 185.34 785.189 185.714 785.278 186.077C785.367 186.433 785.43 186.751 785.467 187.033H785.556C785.585 186.781 785.641 186.47 785.722 186.099C785.804 185.729 785.896 185.322 786 184.877C786.111 184.432 786.226 183.981 786.345 183.521L788.123 176.798H790.001L786.634 188.978H784.489ZM800.245 185.666C800.245 186.444 800.049 187.1 799.656 187.633C799.271 188.159 798.715 188.555 797.989 188.822C797.27 189.089 796.411 189.222 795.411 189.222C794.559 189.222 793.822 189.156 793.199 189.022C792.577 188.889 792.032 188.7 791.566 188.455V186.755C792.062 187 792.655 187.222 793.344 187.422C794.033 187.622 794.737 187.722 795.455 187.722C796.507 187.722 797.27 187.552 797.745 187.211C798.219 186.87 798.456 186.407 798.456 185.822C798.456 185.488 798.359 185.196 798.167 184.944C797.982 184.684 797.667 184.436 797.222 184.199C796.778 183.955 796.163 183.688 795.377 183.399C794.599 183.103 793.925 182.81 793.355 182.521C792.792 182.225 792.355 181.865 792.043 181.443C791.74 181.021 791.588 180.472 791.588 179.798C791.588 178.768 792.003 177.979 792.832 177.431C793.67 176.876 794.766 176.598 796.122 176.598C796.855 176.598 797.541 176.672 798.178 176.82C798.822 176.961 799.423 177.153 799.978 177.398L799.356 178.876C798.852 178.661 798.315 178.48 797.745 178.331C797.174 178.183 796.592 178.109 796 178.109C795.148 178.109 794.492 178.25 794.033 178.531C793.581 178.813 793.355 179.198 793.355 179.687C793.355 180.065 793.459 180.376 793.666 180.621C793.881 180.865 794.222 181.095 794.688 181.31C795.155 181.525 795.77 181.776 796.533 182.065C797.296 182.347 797.956 182.64 798.511 182.943C799.067 183.24 799.493 183.603 799.789 184.032C800.093 184.455 800.245 184.999 800.245 185.666Z" fill="#726C6C"/>
<defs>
<clipPath id="clip0_11234_23147">
<rect width="108.632" height="160" fill="white" transform="translate(0 18.5)"/>
</clipPath>
</defs>
</svg>
