<svg
    className={`  `}
    viewBox="0 0 655 655"
    fill="none"
    xmlns="http://www.w3.org/2000/svg"
  >
    <path
      d="M327.261 654.581C507.991 654.581 654.502 508.07 654.502 327.34C654.502 146.609 507.991 0.0986328 327.261 0.0986328C146.531 0.0986328 0.0197754 146.609 0.0197754 327.34C0.0197754 508.07 146.531 654.581 327.261 654.581Z"
      fill="white"
    />
    <path
      d="M327.32 0C146.549 0 0 146.549 0 327.32C0 467.883 88.6171 587.718 213.017 634.092C224.536 596.649 253.483 566.873 290.392 554.168C242.24 537.571 207.603 491.988 207.603 438.205C207.603 397.384 227.599 361.325 258.264 339.017C241.054 298.295 215.111 261.149 182.628 230.879C176.345 234.811 168.936 237.122 160.993 237.122C138.389 237.122 120.073 218.806 120.073 196.202C120.073 173.599 138.389 155.283 160.993 155.283C183.596 155.283 201.913 173.599 201.913 196.202C201.913 202.011 200.688 207.544 198.494 212.543C232.993 244.532 260.694 283.693 279.346 326.688C294.896 319.555 312.146 315.485 330.363 315.485C348.6 315.485 365.83 319.575 381.38 326.688C399.577 284.741 426.429 246.468 459.782 214.914C456.897 209.302 455.237 202.96 455.237 196.222C455.237 173.618 473.553 155.302 496.157 155.302C518.761 155.302 537.077 173.618 537.077 196.222C537.077 218.826 518.761 237.142 496.157 237.142C489.123 237.142 482.504 235.364 476.715 232.242C444.884 262.275 419.415 298.927 402.462 339.057C433.108 361.364 453.103 397.424 453.103 438.245C453.103 492.028 418.447 537.63 370.295 554.208C406.513 566.675 435.083 595.562 447.018 632.017C568.592 584.221 654.68 465.887 654.68 327.36C654.64 146.549 508.091 0 327.32 0Z"
      fill="#C81517"
    />
</svg>