<svg width="152" height="63" viewBox="0 0 152 63" fill="none" xmlns="http://www.w3.org/2000/svg">
<g clip-path="url(#clip0_11606_6549)">
<path d="M6.32751 26.2942H8.08988H8.26612C8.61859 26.2942 8.79483 25.9413 8.79483 25.5883C8.79483 25.4119 8.79483 25.4119 8.79483 25.2354C8.79483 23.2942 11.0859 18.8825 15.6681 12.3531C16.5493 13.7648 17.4304 14.8236 18.3116 16.2354C18.3116 16.4119 18.3116 16.4119 18.4879 16.5883C18.8403 16.7648 19.1928 16.7648 19.3691 16.4119L20.6027 15.3531C20.9552 15.1766 20.9552 14.8236 20.779 14.4707C18.8403 11.2942 17.078 8.82364 16.5493 8.11776L16.373 7.94129C15.8443 7.58835 15.1394 7.58835 14.7869 8.11776C14.7869 8.11776 14.7869 8.29423 14.6107 8.4707C13.7295 9.706 11.4384 12.706 9.49978 16.0589C6.85622 20.1178 5.62256 23.2942 5.62256 25.2354C5.62256 25.4119 5.62256 25.5883 5.62256 25.5883C5.62256 26.1178 5.97503 26.2942 6.32751 26.2942Z" fill="#757575"/>
<path d="M26.9476 17.4721L24.4803 14.4721C24.1278 14.1191 23.5991 14.1191 23.4228 14.2956L23.0704 14.6485C22.7179 14.825 22.5417 15.3544 22.8941 15.7074L23.2466 16.2368C22.5417 16.0603 21.6605 16.2368 21.1318 16.7662L14.611 22.4132C14.4347 22.2368 14.0823 22.2368 13.906 22.2368C13.7298 22.2368 13.3773 22.4132 13.2011 22.5897L12.6724 22.9427C12.4961 23.1191 12.3199 23.2956 12.3199 23.6485C12.3199 24.0015 12.3199 24.3544 12.4961 24.5309L15.1397 27.7074C15.6684 28.0603 16.3734 28.2368 16.7258 27.7074L17.4308 27.3544C17.7832 27.0015 17.7832 26.4721 17.607 25.9427L20.9555 23.1191C22.3654 25.9427 22.7179 27.3544 22.7179 28.0603C22.7179 31.7662 19.5456 34.9427 15.8446 34.9427C13.2011 34.9427 11.0862 33.8838 10.0288 32.2956H16.9021C17.4308 32.2956 17.9595 31.7662 17.9595 31.0603V30.0015C17.9595 29.2956 17.4308 28.7662 16.9021 28.7662H5.97536C5.44665 28.7662 4.7417 29.2956 4.7417 30.0015V31.0603C4.7417 31.7662 5.44665 32.2956 5.97536 32.2956H6.50407C7.91397 35.825 11.4387 38.1191 15.8446 38.1191C21.308 38.1191 25.8902 33.5309 25.8902 28.0603C25.8902 26.2956 25.009 24.178 23.4228 21.0015L24.1278 20.4721C24.6565 20.1191 24.8327 19.5897 25.009 19.0603C25.009 18.8838 25.009 18.5309 25.009 18.3544C25.009 18.3544 25.009 18.3544 25.009 18.178L25.5377 18.7074C25.7139 19.0603 26.2426 19.0603 26.5951 18.8838L26.9476 18.5309C27.3001 18.178 27.3001 17.825 26.9476 17.4721Z" fill="#757575"/>
<path d="M35.9354 28.9442H37.6978V18.8853H35.7591V21.003H32.4106V16.2383H46.5096V21.003H43.1611V18.8853H41.0463V28.9442H42.6324V31.7677H35.9354V28.9442Z" fill="#757575"/>
<path d="M47.3911 15.707H52.3258V22.06C52.6782 21.707 53.2069 21.5306 53.5594 21.1776C54.0881 21.0011 54.6168 21.0012 55.1455 21.0012C56.5554 21.0012 57.4366 21.3541 58.1416 22.06C58.8465 22.7659 59.199 23.8247 59.199 25.2364V28.9423H60.7851V31.7659H56.0267V25.9423C56.0267 25.2364 55.8505 24.8835 55.498 24.5306C55.1455 24.1776 54.7931 24.0011 54.4406 24.0011C54.0881 24.0011 53.7356 24.0011 53.3832 24.1776C53.0307 24.3541 52.6782 24.707 52.3258 24.8835V28.9423H53.9119V31.7659H47.3911V28.9423H49.1535V18.5306H47.3911V15.707Z" fill="#757575"/>
<path d="M61.6665 21.1797H66.9536V24.0032H66.0724L67.6586 27.8856L69.2447 24.0032H68.1873V21.1797H73.4744V24.0032H72.2407L68.1873 33.8856H69.9497V36.7091H63.4289V33.8856H65.1912L66.0724 31.7679L62.7239 24.0032H61.6665V21.1797Z" fill="#757575"/>
<path d="M84.4006 25.062H81.5808V24.0032C81.2283 24.0032 81.0521 24.0032 80.6996 24.0032C80.5233 24.0032 80.3471 24.0032 80.1709 24.1797C79.9946 24.1797 79.8184 24.3562 79.6422 24.5326C79.6422 24.7091 79.4659 24.8856 79.4659 25.062V28.9444H81.5808V31.7679H74.7075V28.9444H76.2937V24.0032H74.7075V21.1797H79.4659V21.8856C79.6422 21.7091 79.9946 21.5326 80.3471 21.3562C80.8758 21.1797 81.2283 21.1797 81.5808 21.1797C82.1095 21.1797 82.6382 21.1797 82.9907 21.1797C83.5194 21.1797 84.0481 21.1797 84.4006 21.1797V25.062Z" fill="#757575"/>
<path d="M89.1591 26.4713C89.1591 26.8242 89.1591 27.1772 89.3353 27.5301C89.5116 27.883 89.6878 28.236 89.864 28.4125C90.2165 28.5889 90.3927 28.9419 90.7452 28.9419C91.0977 29.1183 91.4502 29.2948 91.8026 29.2948C92.1551 29.2948 92.5076 29.1183 92.6838 28.9419C93.0363 28.9419 93.3888 28.7654 93.565 28.4125C93.7413 28.236 93.9175 27.883 94.0937 27.5301C94.27 27.1772 94.27 26.8242 94.27 26.4713C94.27 25.9419 94.27 25.5889 94.0937 25.236C93.9175 24.883 93.7413 24.7066 93.565 24.3536C93.3888 24.1772 93.0363 24.0007 92.6838 23.8242C92.5076 23.6477 92.1551 23.6477 91.8026 23.6477C91.4502 23.6477 91.0977 23.6477 90.7452 23.8242C90.3927 24.0007 90.2165 24.1772 89.864 24.3536C89.6878 24.7066 89.5116 24.883 89.3353 25.236C89.1591 25.5889 89.1591 25.9419 89.1591 26.4713ZM85.9868 26.4713C85.9868 25.5889 86.1631 24.883 86.5155 24.1772C86.6918 23.6477 87.2205 22.9419 87.573 22.4125C88.1017 21.883 88.8066 21.5301 89.5116 21.1772C90.2165 21.0007 90.9215 20.8242 91.8026 20.8242C92.5076 20.8242 93.3888 21.0007 94.0937 21.1772C94.7987 21.5301 95.3274 21.883 95.8561 22.4125C96.3848 22.9419 96.7373 23.6477 96.9135 24.1772C97.266 24.883 97.4422 25.5889 97.4422 26.4713C97.4422 27.1772 97.266 27.883 96.9135 28.5889C96.7373 29.2948 96.3848 29.8242 95.8561 30.3536C95.3274 30.883 94.7987 31.4125 94.0937 31.5889C93.3888 31.9419 92.5076 32.1183 91.8026 32.1183C90.9215 32.1183 90.0403 31.9419 89.3353 31.5889C88.6304 31.4125 88.1017 30.883 87.573 30.3536C87.0442 29.8242 86.6918 29.2948 86.5155 28.5889C86.1631 27.883 85.9868 27.1772 85.9868 26.4713Z" fill="#757575"/>
<path d="M106.959 24.883C106.606 24.5301 106.254 24.1772 105.902 24.0007C105.549 23.8242 105.197 23.6477 104.668 23.8242C104.315 23.6477 103.963 23.8242 103.61 23.8242C103.258 24.0007 102.906 24.1772 102.729 24.5301C102.553 24.7066 102.377 25.0595 102.201 25.4125C102.024 25.7654 102.024 26.1183 102.024 26.4713C102.024 26.8242 102.024 27.1772 102.201 27.5301C102.377 27.883 102.553 28.236 102.729 28.4125C103.082 28.7654 103.258 28.9419 103.61 28.9419C103.963 29.1183 104.315 29.2948 104.668 29.2948C105.02 29.2948 105.197 29.1183 105.549 29.1183C105.725 28.9419 106.078 28.7654 106.254 28.5889C106.43 28.4125 106.606 28.236 106.783 28.0595C106.959 27.883 106.959 27.7066 107.135 27.5301L109.955 28.236C109.779 28.7654 109.603 29.1183 109.426 29.6477C109.074 30.0007 108.721 30.3536 108.193 30.7066C107.84 31.236 107.311 31.4125 106.606 31.7654C105.902 31.9419 105.197 32.1183 104.492 32.1183C103.61 32.1183 102.906 31.9419 102.201 31.5889C101.496 31.236 100.967 30.883 100.438 30.3536C99.9095 29.8242 99.557 29.2948 99.2045 28.5889C99.0283 27.883 98.8521 27.1772 98.8521 26.2948C98.8521 25.5889 99.0283 24.883 99.3808 24.1772C99.557 23.4713 99.9095 22.9419 100.438 22.4125C100.967 21.883 101.496 21.5301 102.201 21.1772C102.906 21.0007 103.787 20.8242 104.492 20.8242C105.02 20.8242 105.725 20.8242 106.254 21.0007C106.783 21.1772 107.311 21.3536 107.664 21.7066H109.779V24.883H106.959Z" fill="#757575"/>
<path d="M115.243 29.6477C115.772 29.6477 116.3 29.4713 116.653 29.4713C117.005 29.2948 117.358 29.1183 117.71 28.7654V27.5301H115.243C115.067 27.5301 114.89 27.5301 114.714 27.5301C114.538 27.5301 114.362 27.7066 114.362 27.7066C114.185 27.883 114.009 27.883 114.009 28.0595C114.009 28.236 113.833 28.4125 113.833 28.5889C113.833 28.7654 114.009 29.1183 114.185 29.2948C114.538 29.4713 114.89 29.6477 115.243 29.6477ZM117.71 31.236C117.358 31.4125 117.181 31.5889 117.005 31.5889C116.829 31.7654 116.653 31.7654 116.477 31.9419C116.124 31.9419 115.948 31.9419 115.772 31.9419C115.595 32.1183 115.419 32.1183 115.067 32.1183C114.362 32.1183 113.833 31.9419 113.304 31.7654C112.776 31.5889 112.423 31.4125 112.071 31.0595C111.718 30.7066 111.542 30.3536 111.366 30.0007C111.189 29.6477 111.013 29.1183 111.013 28.5889C111.013 28.236 111.189 27.7066 111.366 27.3536C111.542 26.8242 111.718 26.4713 112.071 26.1183C112.423 25.9419 112.952 25.5889 113.481 25.4125C114.009 25.4125 114.538 25.236 115.243 25.236C115.772 25.236 116.124 25.236 116.477 25.236C117.005 25.4125 117.358 25.4125 117.71 25.5889V25.236C117.71 24.883 117.534 24.7066 117.534 24.5301C117.358 24.3536 117.181 24.1772 117.005 24.0007C116.829 23.8242 116.653 23.8242 116.477 23.6477C116.124 23.6477 115.772 23.6477 115.595 23.6477C114.89 23.6477 114.362 23.6477 113.833 23.8242C113.304 24.0007 112.952 24.1772 112.423 24.3536L111.366 22.4125C112.071 21.883 112.952 21.5301 113.657 21.3536C114.362 21.0007 115.243 20.8242 116.124 20.8242C116.653 20.8242 117.358 21.0007 117.886 21.1772C118.415 21.3536 118.944 21.5301 119.296 21.883C119.825 22.236 120.178 22.5889 120.354 23.1183C120.53 23.6477 120.706 24.3536 120.706 25.0595V28.9419H122.116V31.7654H117.71V31.236Z" fill="#757575"/>
<path d="M133.924 25.062H131.104V24.0032C130.752 24.0032 130.575 24.0032 130.223 24.0032C130.047 24.0032 129.871 24.0032 129.694 24.1797C129.518 24.1797 129.342 24.3562 129.166 24.5326C129.166 24.7091 128.989 24.8856 128.989 25.062V28.9444H131.104V31.7679H124.231V28.9444H125.817V24.0032H124.231V21.1797H128.989V21.8856C129.166 21.7091 129.518 21.5326 130.047 21.3562C130.399 21.1797 130.752 21.1797 131.28 21.1797C131.633 21.1797 132.162 21.1797 132.514 21.1797C133.043 21.1797 133.572 21.1797 133.924 21.1797V25.062Z" fill="#757575"/>
<path d="M140.973 23.2955C140.444 23.2955 140.268 23.2955 139.916 23.472C139.739 23.472 139.387 23.6484 139.211 23.8249C139.034 24.0014 138.858 24.1778 138.858 24.3543C138.682 24.5308 138.682 24.7073 138.506 24.8837H142.912C142.912 24.7073 142.912 24.5308 142.735 24.3543C142.735 24.1778 142.559 24.0014 142.383 23.8249C142.207 23.6484 142.031 23.472 141.854 23.472C141.502 23.2955 141.326 23.2955 140.973 23.2955ZM138.506 27.1778V27.5308C138.506 27.7073 138.682 28.0602 138.858 28.2367C139.034 28.5896 139.211 28.7661 139.563 28.9426C139.739 28.9426 140.092 29.119 140.268 29.2955C140.621 29.2955 140.973 29.2955 141.326 29.2955C141.502 29.2955 141.854 29.2955 142.207 29.2955C142.383 29.2955 142.735 29.119 142.912 29.119C143.264 29.119 143.44 28.9426 143.617 28.9426C143.969 28.7661 144.145 28.7661 144.498 28.5896L145.555 30.7073C145.203 31.0602 144.85 31.2367 144.498 31.4131C144.145 31.5896 143.793 31.5896 143.44 31.7661C143.264 31.9426 142.912 31.9426 142.559 31.9426C142.031 32.119 141.678 32.119 141.149 32.119C140.268 32.119 139.387 31.9426 138.682 31.5896C137.977 31.2367 137.448 30.8837 136.92 30.3543C136.391 29.8249 136.038 29.2955 135.686 28.5896C135.51 27.8837 135.333 27.1779 135.333 26.2955C135.333 25.5896 135.51 24.8837 135.862 24.1779C136.038 23.472 136.391 22.7661 136.92 22.4131C137.448 21.8837 137.977 21.3543 138.682 21.1779C139.387 20.8249 140.092 20.6484 140.973 20.6484C141.854 20.6484 142.559 20.8249 143.264 21.1779C143.793 21.3543 144.498 21.7073 144.85 22.2367C145.379 22.7661 145.731 23.2955 145.908 24.0014C146.084 24.7073 146.26 25.4131 146.26 26.119C146.26 26.2955 146.26 26.472 146.26 26.6484C146.26 26.8249 146.26 27.0014 146.26 27.1778H138.506Z" fill="#757575"/>
<path d="M37.3458 52.0614V46.4143H35.231V45.3555H40.8705V46.4143H38.5795V52.0614H37.3458Z" fill="#757575"/>
<path d="M43.5141 52.0597C42.9854 52.0597 42.4567 51.8833 42.1042 51.7068C41.5755 51.5303 41.223 51.1774 41.0468 50.8244C40.8706 50.4715 40.6943 49.9421 40.6943 49.4127C40.6943 48.8833 40.8706 48.5303 41.0468 48.0009C41.223 47.648 41.5755 47.295 41.928 47.1186C42.4567 46.9421 42.8092 46.7656 43.3379 46.7656C43.8666 46.7656 44.2191 46.9421 44.7478 47.1186C45.1003 47.295 45.4527 47.648 45.629 48.0009C45.8052 48.5303 45.9814 48.8833 45.9814 49.4127C45.9814 49.5892 45.9814 49.5892 45.9814 49.5892C45.9814 49.7656 45.9814 49.7656 45.9814 49.7656H41.7518V49.0597H45.2765L44.7478 49.2362C44.7478 49.0597 44.7478 48.7068 44.5716 48.5303C44.5716 48.3539 44.3953 48.1774 44.0428 48.0009C43.8666 47.8244 43.6904 47.8244 43.3379 47.8244C43.1617 47.8244 42.8092 47.8244 42.6329 48.0009C42.2805 48.1774 42.1042 48.3539 42.1042 48.5303C41.928 48.7068 41.928 49.0597 41.928 49.2362V49.4127C41.928 49.7656 41.928 50.1186 42.1042 50.295C42.2805 50.4715 42.4567 50.648 42.6329 50.8244C42.9854 51.0009 43.1617 51.0009 43.5141 51.0009C43.8666 51.0009 44.0428 51.0009 44.3953 50.8244C44.5716 50.8244 44.7478 50.648 44.924 50.4715L45.629 51.1774C45.4527 51.5303 45.1003 51.7068 44.7478 51.8833C44.3953 52.0597 44.0428 52.0597 43.5141 52.0597Z" fill="#757575"/>
<path d="M48.6251 52.0597C48.2726 52.0597 47.9202 52.0597 47.3914 51.8833C47.039 51.7068 46.6865 51.7068 46.5103 51.5303L47.039 50.648C47.2152 50.648 47.3914 50.8244 47.7439 51.0009C48.0964 51.0009 48.4489 51.0009 48.8013 51.0009C49.1538 51.0009 49.33 51.0009 49.5063 51.0009C49.6825 50.8244 49.8588 50.648 49.8588 50.4715C49.8588 50.295 49.6825 50.295 49.6825 50.1186C49.5063 50.1186 49.33 50.1186 49.1538 49.9421C48.9776 49.9421 48.8013 49.9421 48.6251 49.9421C48.2726 49.9421 48.0964 49.7656 47.9201 49.7656C47.7439 49.7656 47.3914 49.5892 47.2152 49.5892C47.039 49.4127 47.039 49.2362 46.8627 49.0597C46.6865 48.8833 46.6865 48.7068 46.6865 48.3539C46.6865 48.0009 46.6865 47.8244 46.8627 47.648C47.2152 47.295 47.3914 47.1186 47.7439 46.9421C48.0964 46.9421 48.4489 46.7656 48.9776 46.7656C49.33 46.7656 49.6825 46.7656 50.035 46.9421C50.3875 46.9421 50.5637 47.1186 50.9162 47.295L50.3875 48.1774C50.2112 48.0009 49.8588 48.0009 49.6825 47.8244C49.33 47.8244 49.1538 47.8244 48.9776 47.8244C48.6251 47.8244 48.2726 47.8244 48.0964 48.0009C47.9201 48.0009 47.9201 48.1774 47.9201 48.3539C47.9201 48.5303 47.9201 48.7068 47.9201 48.7068C48.0964 48.7068 48.2726 48.8833 48.4489 48.8833C48.6251 48.8833 48.8013 48.8833 49.1538 49.0597C49.33 49.0597 49.5063 49.0597 49.6825 49.0597C50.035 49.2362 50.2112 49.2362 50.3875 49.4127C50.5637 49.4127 50.7399 49.5892 50.7399 49.7656C50.9162 49.9421 50.9162 50.1186 50.9162 50.4715C50.9162 50.8244 50.9162 51.0009 50.7399 51.3539C50.5637 51.5303 50.2112 51.7068 49.8588 51.8833C49.5063 52.0597 49.1538 52.0597 48.6251 52.0597Z" fill="#757575"/>
<path d="M53.9116 52.06C53.3829 52.06 53.0304 51.8835 52.678 51.707C52.3255 51.3541 52.1493 50.8247 52.1493 50.2953V45.707H53.3829V50.2953C53.3829 50.4717 53.3829 50.8247 53.5591 50.8247C53.7354 51.0012 53.9116 51.0012 54.0879 51.0012C54.4403 51.0012 54.6166 51.0012 54.7928 50.8247L55.1453 51.707C54.969 51.8835 54.7928 51.8835 54.6166 52.06C54.4403 52.06 54.0879 52.06 53.9116 52.06ZM51.2681 47.8247V46.9423H54.7928V47.8247H51.2681Z" fill="#757575"/>
<path d="M57.6124 52.0597C57.2599 52.0597 56.9075 52.0597 56.3787 51.8833C56.0263 51.7068 55.6738 51.7068 55.4976 51.5303L56.0263 50.648C56.2025 50.648 56.555 50.8244 56.7312 51.0009C57.0837 51.0009 57.4362 51.0009 57.7886 51.0009C58.1411 51.0009 58.3174 51.0009 58.4936 51.0009C58.6698 50.8244 58.8461 50.648 58.8461 50.4715C58.8461 50.295 58.8461 50.295 58.6698 50.1186C58.4936 50.1186 58.3174 50.1186 58.1411 49.9421C57.9649 49.9421 57.7886 49.9421 57.6124 49.9421C57.4362 49.9421 57.0837 49.7656 56.9075 49.7656C56.7312 49.7656 56.3787 49.5892 56.2025 49.5892C56.0263 49.4127 56.0263 49.2362 55.85 49.0597C55.6738 48.8833 55.6738 48.7068 55.6738 48.3539C55.6738 48.0009 55.6738 47.8244 55.85 47.648C56.2025 47.295 56.3787 47.1186 56.7312 46.9421C57.0837 46.9421 57.4362 46.7656 57.9649 46.7656C58.3174 46.7656 58.6698 46.7656 59.0223 46.9421C59.3748 46.9421 59.551 47.1186 59.9035 47.295L59.3748 48.1774C59.1985 48.0009 58.8461 48.0009 58.6698 47.8244C58.3174 47.8244 58.1411 47.8244 57.9649 47.8244C57.6124 47.8244 57.2599 47.8244 57.0837 48.0009C56.9075 48.0009 56.9075 48.1774 56.9075 48.3539C56.9075 48.5303 56.9075 48.7068 57.0837 48.7068C57.0837 48.7068 57.2599 48.8833 57.4362 48.8833C57.6124 48.8833 57.7886 48.8833 58.1411 49.0597C58.3174 49.0597 58.4936 49.0597 58.6698 49.0597C59.0223 49.2362 59.1985 49.2362 59.3748 49.4127C59.551 49.4127 59.7273 49.5892 59.7273 49.7656C59.9035 49.9421 59.9035 50.1186 59.9035 50.4715C59.9035 50.8244 59.9035 51.0009 59.7273 51.3539C59.551 51.5303 59.1985 51.7068 58.8461 51.8833C58.4936 52.0597 58.1411 52.0597 57.6124 52.0597Z" fill="#757575"/>
<path d="M65.1914 52.2355L62.9004 46.9414H64.134L65.8964 51.3532L65.1914 52.2355ZM64.134 54.0002C63.7815 54.0002 63.6053 53.8238 63.2528 53.8238C63.0766 53.6473 62.9004 53.6473 62.7241 53.4708L63.2528 52.5885C63.2528 52.7649 63.4291 52.7649 63.6053 52.7649C63.7815 52.9414 63.9578 52.9414 64.134 52.9414C64.3103 52.9414 64.4865 52.9414 64.6627 52.7649C64.6627 52.5885 64.839 52.412 65.0152 52.2355L65.1914 51.5296L65.3677 51.3532L67.3063 46.9414H68.3637L66.0726 52.412C65.8964 52.7649 65.7202 53.1179 65.5439 53.2943C65.3677 53.4708 65.1914 53.6473 64.839 53.8238C64.6627 53.8238 64.3103 54.0002 64.134 54.0002Z" fill="#757575"/>
<path d="M71.3589 51.0009C71.7114 51.0009 71.8876 51.0009 72.0638 50.8244C72.4163 50.648 72.5925 50.4715 72.5925 50.295C72.7688 50.1186 72.945 49.7656 72.945 49.4127C72.945 49.0597 72.7688 48.8833 72.5925 48.5303C72.5925 48.3539 72.4163 48.1774 72.0638 48.0009C71.8876 47.8244 71.7114 47.8244 71.3589 47.8244C71.0064 47.8244 70.8302 47.8244 70.6539 48.0009C70.3015 48.1774 70.1252 48.3539 70.1252 48.5303C69.949 48.8833 69.7728 49.0597 69.7728 49.4127C69.7728 49.7656 69.949 50.1186 70.1252 50.295C70.1252 50.4715 70.3015 50.648 70.6539 50.8244C70.8302 51.0009 71.0064 51.0009 71.3589 51.0009ZM71.3589 52.0597C70.8302 52.0597 70.3015 51.8833 69.949 51.7068C69.5965 51.5303 69.244 51.1774 69.0678 50.8244C68.7153 50.4715 68.7153 49.9421 68.7153 49.4127C68.7153 48.8833 68.7153 48.5303 69.0678 48.0009C69.244 47.648 69.5965 47.295 69.949 47.1186C70.3015 46.9421 70.8302 46.7656 71.3589 46.7656C71.8876 46.7656 72.4163 46.9421 72.7688 47.1186C73.1213 47.295 73.4737 47.648 73.65 48.0009C74.0024 48.5303 74.0024 48.8833 74.0024 49.4127C74.0024 49.9421 74.0024 50.4715 73.65 50.8244C73.4737 51.1774 73.1213 51.5303 72.7688 51.7068C72.4163 51.8833 71.8876 52.0597 71.3589 52.0597Z" fill="#757575"/>
<path d="M77.3517 52.0591C76.9992 52.0591 76.6467 52.0591 76.2942 51.8826C75.9418 51.7061 75.5893 51.3532 75.413 51.0002C75.2368 50.6473 75.2368 50.2943 75.2368 49.7649V46.9414H76.4705V49.5885C76.4705 50.1179 76.4705 50.4708 76.6467 50.6473C76.9992 50.8238 77.1754 51.0002 77.5279 51.0002C77.8804 51.0002 78.0566 51.0002 78.4091 50.8238C78.5853 50.6473 78.7616 50.4708 78.7616 50.2943C78.9378 50.1179 78.9378 49.7649 78.9378 49.412V46.9414H80.1715V52.0591H79.114V50.6473L79.2903 51.0002C79.114 51.3532 78.7616 51.5296 78.4091 51.7061C78.2328 51.8826 77.7041 52.0591 77.3517 52.0591Z" fill="#757575"/>
<path d="M86.6919 52.0597C86.1632 52.0597 85.8107 51.8833 85.282 51.7068C84.9295 51.5303 84.5771 51.1774 84.4008 50.8244C84.0483 50.4715 84.0483 49.9421 84.0483 49.4127C84.0483 48.8833 84.0483 48.5303 84.4008 48.0009C84.5771 47.648 84.9295 47.295 85.282 47.1186C85.8107 46.9421 86.1632 46.7656 86.6919 46.7656C87.2206 46.7656 87.7493 46.9421 88.1018 47.1186C88.4543 47.295 88.8067 47.648 88.983 48.0009L87.9256 48.5303C87.9256 48.3539 87.5731 48.1774 87.3968 48.0009C87.2206 47.8244 87.0444 47.8244 86.6919 47.8244C86.5157 47.8244 86.1632 47.8244 85.9869 48.0009C85.6345 48.1774 85.4582 48.3539 85.4582 48.5303C85.282 48.8833 85.1058 49.0597 85.1058 49.4127C85.1058 49.7656 85.282 50.1186 85.4582 50.295C85.4582 50.4715 85.6345 50.648 85.9869 50.8244C86.1632 51.0009 86.5157 51.0009 86.6919 51.0009C87.0444 51.0009 87.2206 51.0009 87.3968 50.8244C87.5731 50.8244 87.9256 50.648 87.9256 50.295L88.983 50.8244C88.8067 51.1774 88.4543 51.5303 88.1018 51.7068C87.7493 51.8833 87.2206 52.0597 86.6919 52.0597Z" fill="#757575"/>
<path d="M93.0369 52.0597V51.0009V50.8244V48.8833C93.0369 48.5303 92.8607 48.3539 92.6845 48.1774C92.5082 47.8244 92.1558 47.8244 91.8033 47.8244C91.4508 47.8244 91.2746 47.8244 90.9221 48.0009C90.5696 48.0009 90.3934 48.1774 90.2172 48.3539L89.6884 47.4715C90.0409 47.295 90.3934 47.1186 90.7459 46.9421C91.0983 46.9421 91.4508 46.7656 91.9795 46.7656C92.6845 46.7656 93.2132 46.9421 93.5657 47.295C94.0944 47.648 94.2706 48.1774 94.2706 49.0597V52.0597H93.0369ZM91.4508 52.0597C91.0983 52.0597 90.7459 52.0597 90.5696 51.8833C90.2172 51.7068 90.0409 51.5303 89.8647 51.3539C89.6884 51.0009 89.5122 50.8244 89.5122 50.4715C89.5122 50.295 89.6884 49.9421 89.8647 49.7656C89.8647 49.5892 90.2172 49.4127 90.3934 49.2362C90.7459 49.0597 91.2746 49.0597 91.8033 49.0597H93.2132V49.7656H91.8033C91.4508 49.7656 91.0983 49.9421 90.9221 49.9421C90.9221 50.1186 90.7459 50.295 90.7459 50.4715C90.7459 50.648 90.9221 50.8244 91.0983 51.0009C91.2746 51.1774 91.4508 51.1774 91.8033 51.1774C91.9795 51.1774 92.332 51.1774 92.5082 51.0009C92.6845 50.8244 92.8607 50.648 93.0369 50.4715L93.2132 51.1774C93.037 51.3539 92.8607 51.7068 92.6845 51.8833C92.332 52.0597 91.9795 52.0597 91.4508 52.0597Z" fill="#757575"/>
<path d="M98.6758 46.7656C99.0282 46.7656 99.3807 46.9421 99.7332 47.1186C100.086 47.1186 100.262 47.4715 100.438 47.8244C100.791 48.1774 100.791 48.5303 100.791 49.0597V52.0597H99.5569V49.2362C99.5569 48.7068 99.5569 48.3539 99.2045 48.1774C99.0282 48.0009 98.852 47.8244 98.3233 47.8244C98.147 47.8244 97.7946 48.0009 97.6183 48.0009C97.4421 48.1774 97.2659 48.3539 97.0896 48.5303C97.0896 48.7068 96.9134 49.0597 96.9134 49.4127V52.0597H95.856V46.9421H96.9134V48.1774L96.7371 47.8244C96.9134 47.4715 97.0896 47.295 97.4421 47.1186C97.7946 46.9421 98.147 46.7656 98.6758 46.7656Z" fill="#757575"/>
<path d="M106.959 52.06C106.254 52.06 105.902 51.8835 105.549 51.707C105.197 51.3541 105.197 50.8247 105.197 50.2953V45.707H106.254V50.2953C106.254 50.4717 106.43 50.8247 106.43 50.8247C106.607 51.0012 106.783 51.0012 106.959 51.0012C107.311 51.0012 107.488 51.0012 107.664 50.8247L108.016 51.707C107.84 51.8835 107.664 51.8835 107.488 52.06C107.311 52.06 107.135 52.06 106.959 52.06ZM104.315 47.8247V46.9423H107.664V47.8247H104.315Z" fill="#757575"/>
<path d="M109.074 52.0597V46.9421H110.131V48.3539L109.955 47.8244C110.131 47.4715 110.484 47.295 110.836 47.1186C111.012 46.9421 111.541 46.7656 111.894 46.7656V48.0009C111.717 48.0009 111.717 48.0009 111.717 48.0009C111.189 48.0009 110.836 48.0009 110.66 48.3539C110.307 48.5303 110.307 49.0597 110.307 49.5892V52.0597H109.074Z" fill="#757575"/>
<path d="M115.243 52.0591C114.714 52.0591 114.362 52.0591 114.009 51.8826C113.657 51.7061 113.48 51.3532 113.304 51.0002C113.128 50.6473 112.952 50.2943 112.952 49.7649V46.9414H114.185V49.5885C114.185 50.1179 114.362 50.4708 114.538 50.6473C114.714 50.8238 115.067 51.0002 115.419 51.0002C115.771 51.0002 115.948 51.0002 116.124 50.8238C116.3 50.6473 116.476 50.4708 116.653 50.2943C116.829 50.1179 116.829 49.7649 116.829 49.412V46.9414H118.063V52.0591H116.829V50.6473L117.005 51.0002C116.829 51.3532 116.653 51.5296 116.3 51.7061C115.948 51.8826 115.595 52.0591 115.243 52.0591Z" fill="#757575"/>
<path d="M121.235 52.0597C120.706 52.0597 120.354 52.0597 120.001 51.8833C119.473 51.7068 119.296 51.7068 118.944 51.5303L119.473 50.648C119.649 50.648 120.001 50.8244 120.354 51.0009C120.53 51.0009 120.882 51.0009 121.235 51.0009C121.587 51.0009 121.94 51.0009 122.116 51.0009C122.292 50.8244 122.292 50.648 122.292 50.4715C122.292 50.295 122.292 50.295 122.116 50.1186C121.94 50.1186 121.94 50.1186 121.764 49.9421C121.411 49.9421 121.235 49.9421 121.059 49.9421C120.882 49.9421 120.53 49.7656 120.354 49.7656C120.178 49.7656 120.001 49.5892 119.825 49.5892C119.649 49.4127 119.473 49.2362 119.296 49.0597C119.12 48.8833 119.12 48.7068 119.12 48.3539C119.12 48.0009 119.296 47.8244 119.473 47.648C119.649 47.295 119.825 47.1186 120.178 46.9421C120.53 46.9421 120.882 46.7656 121.411 46.7656C121.764 46.7656 122.116 46.7656 122.469 46.9421C122.821 46.9421 122.997 47.1186 123.35 47.295L122.821 48.1774C122.645 48.0009 122.292 48.0009 122.116 47.8244C121.94 47.8244 121.587 47.8244 121.411 47.8244C121.059 47.8244 120.706 47.8244 120.53 48.0009C120.354 48.0009 120.354 48.1774 120.354 48.3539C120.354 48.5303 120.354 48.7068 120.53 48.7068C120.53 48.7068 120.706 48.8833 120.882 48.8833C121.059 48.8833 121.235 48.8833 121.587 49.0597C121.764 49.0597 121.94 49.0597 122.292 49.0597C122.469 49.2362 122.645 49.2362 122.821 49.4127C122.997 49.4127 123.174 49.5892 123.35 49.7656C123.35 49.9421 123.526 50.1186 123.526 50.4715C123.526 50.8244 123.35 51.0009 123.174 51.3539C122.997 51.5303 122.645 51.7068 122.469 51.8833C122.116 52.0597 121.587 52.0597 121.235 52.0597Z" fill="#757575"/>
<path d="M126.346 52.06C125.817 52.06 125.465 51.8835 125.112 51.707C124.76 51.3541 124.583 50.8247 124.583 50.2953V45.707H125.817V50.2953C125.817 50.4717 125.993 50.8247 125.993 50.8247C126.169 51.0012 126.346 51.0012 126.522 51.0012C126.874 51.0012 127.051 51.0012 127.227 50.8247L127.579 51.707C127.403 51.8835 127.227 51.8835 127.051 52.06C126.874 52.06 126.698 52.06 126.346 52.06ZM123.878 47.8247V46.9423H127.227V47.8247H123.878Z" fill="#757575"/>
</g>
<defs>
<clipPath id="clip0_11606_6549">
<rect width="151" height="63" fill="white" transform="translate(0.0893555)"/>
</clipPath>
</defs>
</svg>
