<svg xmlns="http://www.w3.org/2000/svg" id="research" width="567.41" height="82.6" viewBox="0 0 567.41 82.6">
  <path id="Path_608" data-name="Path 608" d="M29.424-63.452h9.883c6.4,0,10.725,4.324,10.725,10.332,0,6.121-4.1,10.22-10.781,10.22H29.424Zm0,36.274h7.805L50.032,0H76.648L61.262-30.715c8.479-4.043,13.083-13.252,13.083-22.8,0-17.351-11.118-27.515-32.737-27.515H5.615V0H29.424Zm83.862-20.552c5.391,0,9.265,3.594,9.658,9.153H103.628A9.589,9.589,0,0,1,113.286-47.729ZM123.618-20.1c-1.348,3.706-5.11,5.9-9.771,5.9a10.116,10.116,0,0,1-10.557-10.444v-1.46h41.1v-6.233c0-18.979-12.41-31.221-31.614-31.221-19.485,0-31.67,12.634-31.67,32.905,0,20.159,12.073,32.231,32.4,32.231,17.014,0,28.694-8.311,30.6-21.675ZM151.5-42.732c0,9.6,6.458,16.284,18.755,18.53l11.23,2.078c5.222.955,7.019,2.19,7.019,4.436,0,2.583-2.751,4.211-7.187,4.211-5.166,0-8.2-2.358-8.984-6.233H150.093c1.067,12.69,11.68,21.282,31.221,21.282,17.969,0,29.985-8.423,29.985-21.9,0-9.377-6.008-14.543-19.429-17.014l-11.23-2.078c-5.615-1.067-7.131-2.415-7.131-4.6,0-2.808,2.808-4.492,6.963-4.492,4.941,0,7.805,2.808,8.086,6.57h20.889c-.281-13.252-10.894-21.619-28.975-21.619C162.446-63.564,151.5-55.647,151.5-42.732Zm97.676-5c5.391,0,9.265,3.594,9.658,9.153H239.514A9.589,9.589,0,0,1,249.173-47.729ZM259.5-20.1c-1.348,3.706-5.11,5.9-9.771,5.9a10.116,10.116,0,0,1-10.557-10.444v-1.46h41.1v-6.233c0-18.979-12.41-31.221-31.614-31.221C229.182-63.564,217-50.93,217-30.659,217-10.5,229.07,1.572,249.4,1.572c17.014,0,28.694-8.311,30.6-21.675Zm56.123,5.615c-4.043,0-6.794-1.965-6.794-5.334,0-3.032,2.471-5.11,6.851-5.447l9.771-.674V-21.9C325.454-17.351,320.738-14.487,315.628-14.487ZM307.037.9c7.188,0,14.712-3.145,17.969-9.209h.449V0h22.461V-42.4c0-12.578-11.511-21.169-28.694-21.169-18.081,0-29.312,8.367-29.873,21.619H309.9c.337-3.145,3.369-5.728,8.086-5.728,4.324,0,7.468,2.246,7.468,6.4v3.032l-13.589.842c-16.565,1.011-25.718,7.468-25.718,19.373C286.148-6.851,295.75.9,307.037.9ZM357.713,0h23.022V-30.884c0-8.647,4.436-13.083,13.083-13.083a17.284,17.284,0,0,1,6.682,1.292V-61.992a15.466,15.466,0,0,0-5.391-.9c-7.356,0-12.129,4.268-14.487,13.083h-.449V-61.992H357.713ZM466.844-36.331c-.281-16.79-12.185-27.234-30.21-27.234-19.934,0-32.231,12.3-32.231,32.512,0,20.439,12.241,32.625,32.344,32.625,18.418,0,29.873-10.051,30.1-26.841H445.9c-.393,6.121-3.706,9.714-8.872,9.714-6.121,0-9.321-5.391-9.321-15.5,0-10,3.257-15.386,9.321-15.386,4.941,0,8.423,3.818,8.872,10.107ZM475.069,0h23.022V-34.646c0-5.784,3.088-10,8.816-10,5.784,0,8.816,3.818,8.816,10.051V0h23.022V-39.7c0-14.88-7.524-23.528-21.45-23.528-9.434,0-16.228,4.717-19.316,13.42h-.449V-81.028H475.069Zm86.277.786a11.671,11.671,0,0,0,11.68-11.68,11.671,11.671,0,0,0-11.68-11.68,11.671,11.671,0,0,0-11.68,11.68A11.671,11.671,0,0,0,561.346.786Z" transform="translate(-5.615 81.028)"/>
</svg>
